<?xml version="1.0" encoding="iso-8859-1"?>
<!-- Generator: Adobe Illustrator 19.0.0, SVG Export Plug-In . SVG Version: 6.00 Build 0)  -->
<svg version="1.1" id="Layer_1" xmlns="http://www.w3.org/2000/svg" xmlns:xlink="http://www.w3.org/1999/xlink" x="0px" y="0px"
	 viewBox="0 0 512 512" style="enable-background:new 0 0 512 512;" xml:space="preserve">
<polyline style="fill:#F2BF7E;" points="207.935,124.027 152.555,124.027 152.555,323.603 479.608,323.603 479.608,124.027 
	424.229,124.027 "/>
<polyline style="fill:#AA603B;" points="199.576,124.027 152.555,124.027 152.555,323.603 264.155,323.603 448.369,124.027 
	400.196,124.027 "/>
<rect x="55.912" y="43.754" style="fill:#F2BF7E;" width="48.056" height="424.49"/>
<rect x="55.912" y="43.754" style="fill:#AA603B;" width="24.027" height="424.49"/>
<path d="M111.806,476.083H48.077V35.917h63.729V476.083z M63.75,460.409h32.382V51.591H63.75V460.409z"/>
<rect y="75.964" width="32.392" height="15.673"/>
<polygon style="fill:#C5FFCA;" points="496.327,67.603 496.327,75.962 487.967,75.962 487.967,91.635 496.327,91.635 
	496.327,99.995 512,99.995 512,67.603 "/>
<rect x="152.555" y="75.964" width="327.053" height="15.673"/>
<g>
	<polygon style="fill:#C5FFCA;" points="144.196,75.962 135.837,75.962 135.837,67.603 120.163,67.603 120.163,99.995 
		135.837,99.995 135.837,91.635 144.196,91.635 	"/>
	<rect x="216.294" y="59.244" style="fill:#C5FFCA;" width="15.673" height="80.457"/>
	<rect x="400.196" y="59.244" style="fill:#C5FFCA;" width="15.673" height="80.457"/>
</g>
<polygon points="487.967,330.917 144.196,330.917 144.196,115.668 207.935,115.668 207.935,131.342 159.869,131.342 
	159.869,315.244 472.294,315.244 472.294,131.342 424.229,131.342 424.229,115.668 487.967,115.668 "/>
<rect x="240.327" y="115.67" width="151.51" height="15.673"/>
<rect x="24.033" y="67.605" style="fill:#C5FFCA;" width="15.673" height="32.392"/>
<g>
	<path style="fill:#FFFFFF;" d="M200.08,181.335c4.975-0.815,12.399-1.423,20.635-1.423c10.164,0,17.274,1.523,22.158,5.389
		c4.064,3.253,6.299,8.029,6.299,14.332c0,8.745-6.199,14.741-12.093,16.877v0.302c4.776,1.933,7.417,6.506,9.146,12.808
		c2.136,7.727,4.271,16.67,5.595,19.314h-15.858c-1.117-1.933-2.748-7.524-4.776-15.958c-1.83-8.542-4.785-10.876-11.083-10.98
		h-4.677v26.937H200.08V181.335z M215.426,210.813h6.1c7.723,0,12.299-3.861,12.299-9.862c0-6.299-4.271-9.452-11.389-9.551
		c-3.757,0-5.893,0.302-7.01,0.505V210.813z"/>
	<path style="fill:#FFFFFF;" d="M301.151,219.964h-25.203v16.264h28.15v12.705h-43.703v-68.513h42.287v12.705h-26.735v14.233h25.203
		v12.607H301.151z"/>
	<path style="fill:#FFFFFF;" d="M314.7,248.933V180.42h18.093l14.228,25.108c4.064,7.217,8.128,15.755,11.182,23.482h0.306
		c-1.018-9.047-1.324-18.3-1.324-28.564v-20.027h14.237v68.513H355.15l-14.634-26.429c-4.064-7.322-8.542-16.165-11.894-24.194
		l-0.306,0.099c0.405,9.047,0.612,18.706,0.612,29.888v20.635H314.7V248.933z"/>
	<path style="fill:#FFFFFF;" d="M398.091,193.431h-18.4V180.42h52.659v13.011h-18.707v55.502h-15.552V193.431z"/>
</g>
<rect x="256" y="268.225" style="fill:#F2F2F2;" width="120.163" height="15.673"/>
<g>
	<rect x="400.196" y="292.258" style="fill:#999999;" width="16.718" height="15.673"/>
	<rect x="424.229" y="292.258" style="fill:#999999;" width="16.718" height="15.673"/>
	<rect x="449.306" y="292.258" style="fill:#999999;" width="14.629" height="15.673"/>
</g>
<g>
</g>
<g>
</g>
<g>
</g>
<g>
</g>
<g>
</g>
<g>
</g>
<g>
</g>
<g>
</g>
<g>
</g>
<g>
</g>
<g>
</g>
<g>
</g>
<g>
</g>
<g>
</g>
<g>
</g>
</svg>
