<?xml version="1.0" encoding="iso-8859-1"?>
<!-- Generator: Adobe Illustrator 19.0.0, SVG Export Plug-In . SVG Version: 6.00 Build 0)  -->
<svg version="1.1" id="Layer_1" xmlns="http://www.w3.org/2000/svg" xmlns:xlink="http://www.w3.org/1999/xlink" x="0px" y="0px"
	 viewBox="0 0 512 512" style="enable-background:new 0 0 512 512;" xml:space="preserve">
<g>
	<g>
		<path d="M211.772,239.087c3.797-2.022,7.023-4.548,9.651-7.578c4.702-5.376,7.074-11.776,7.074-18.987
			c0-4.872-1.126-9.327-3.302-13.184c-2.15-3.789-5.103-6.946-8.798-9.438c-3.448-2.321-7.501-4.096-11.998-5.265
			c-4.275-1.109-9.003-1.673-13.978-1.673h-27.725v94.865h24.149V245.24l26.402,32.589h30.575L211.772,239.087z M203.375,216.9
			c-0.725,1.229-1.749,2.21-3.149,3.063c-1.553,0.947-3.499,1.698-5.803,2.21c-2.372,0.512-4.898,0.785-7.578,0.836v-18.133h3.447
			c2.202,0,4.378,0.222,6.4,0.648c1.775,0.384,3.354,0.973,4.651,1.749c0.947,0.546,1.698,1.289,2.253,2.202
			c0.503,0.828,0.751,1.937,0.751,3.302C204.348,214.494,204.023,215.825,203.375,216.9z"/>
	</g>
</g>
<g>
	<g>
		<polygon points="270.899,255.787 270.899,240.486 303.795,240.486 303.795,218.453 270.899,218.453 270.899,205.005 
			305.271,205.005 305.271,182.963 246.741,182.963 246.741,277.828 305.647,277.828 305.647,255.787 		"/>
	</g>
</g>
<g>
	<g>
		<polygon points="370.466,182.963 370.466,233.805 334.217,182.963 313.668,182.963 313.668,277.828 337.323,277.828 
			337.323,226.987 373.572,277.828 394.121,277.828 394.121,182.963 		"/>
	</g>
</g>
<g>
	<g>
		<polygon points="401.041,182.963 401.041,205.005 425.199,205.005 425.199,277.828 449.348,277.828 449.348,205.005 
			473.498,205.005 473.498,182.963 		"/>
	</g>
</g>
<g>
	<g>
		<path d="M512,64V38.4H64V0H38.4v38.4H0V64h38.4v422.4H12.8c-7.074,0-12.8,5.726-12.8,12.8c0,7.074,5.726,12.8,12.8,12.8h76.8
			c7.074,0,12.8-5.726,12.8-12.8c0-7.074-5.726-12.8-12.8-12.8H64V64h89.591v38.4H128c-14.14,0-25.6,11.46-25.6,25.6v204.8
			c0,14.14,11.46,25.6,25.6,25.6h358.4c14.14,0,25.6-11.46,25.6-25.6V128c0-14.14-11.46-25.6-25.6-25.6h-25.6V64H512z M179.191,64
			H435.2v38.4H179.191V64z M486.4,128v204.8H128V128H486.4z"/>
	</g>
</g>
<g>
</g>
<g>
</g>
<g>
</g>
<g>
</g>
<g>
</g>
<g>
</g>
<g>
</g>
<g>
</g>
<g>
</g>
<g>
</g>
<g>
</g>
<g>
</g>
<g>
</g>
<g>
</g>
<g>
</g>
</svg>
